<?xml version="1.0" encoding="iso-8859-1"?>
<!-- Generator: Adobe Illustrator 18.1.1, SVG Export Plug-In . SVG Version: 6.00 Build 0)  -->
<svg version="1.1" id="Capa_1" xmlns="http://www.w3.org/2000/svg" xmlns:xlink="http://www.w3.org/1999/xlink" x="0px" y="0px"
	 viewBox="0 0 14.75 14.75" style="enable-background:new 0 0 14.75 14.75;" xml:space="preserve">
<g>
	<g>
		<path style="fill:#090509;" d="M7.375,0C3.302,0,0,3.302,0,7.375s3.302,7.375,7.375,7.375s7.375-3.302,7.375-7.375
			C14.75,3.301,11.448,0,7.375,0z M11.984,11.652c0,0.183-0.149,0.332-0.334,0.332H3.098c-0.183,0-0.333-0.148-0.333-0.332V3.098
			c0-0.183,0.149-0.333,0.333-0.333h8.552c0.184,0,0.334,0.149,0.334,0.333V11.652z M5.531,7.375c0-1.018,0.826-1.844,1.844-1.844
			s1.844,0.826,1.844,1.844S8.393,9.219,7.375,9.219S5.531,8.393,5.531,7.375z M9.219,3.687h1.844v1.844H9.219V3.687z M10.057,6.914
			h1.006v4.148H3.688V6.914h1.007C4.656,7.099,4.633,7.179,4.633,7.375c0,1.514,1.231,2.743,2.743,2.743
			c1.514,0,2.743-1.229,2.743-2.743C10.118,7.179,10.096,7.099,10.057,6.914z"/>
	</g>
</g>
<g>
</g>
<g>
</g>
<g>
</g>
<g>
</g>
<g>
</g>
<g>
</g>
<g>
</g>
<g>
</g>
<g>
</g>
<g>
</g>
<g>
</g>
<g>
</g>
<g>
</g>
<g>
</g>
<g>
</g>
</svg>
