<?xml version="1.0" encoding="utf-8"?>
<!-- Generator: Adobe Illustrator 16.2.0, SVG Export Plug-In . SVG Version: 6.00 Build 0)  -->
<!DOCTYPE svg PUBLIC "-//W3C//DTD SVG 1.1//EN" "http://www.w3.org/Graphics/SVG/1.1/DTD/svg11.dtd">
<svg version="1.1" id="Capa_1" xmlns="http://www.w3.org/2000/svg" xmlns:xlink="http://www.w3.org/1999/xlink" x="0px" y="0px"
	 width="20px" height="20px" viewBox="246 246 20 20" enable-background="new 246 246 20 20" xml:space="preserve">
<g>
	<path d="M262.875,259.75c-0.883,0-1.679,0.366-2.246,0.954l-8.419-4.209c0.026-0.161,0.04-0.326,0.04-0.495
		s-0.014-0.333-0.04-0.495l8.419-4.209c0.567,0.587,1.363,0.954,2.246,0.954c1.726,0,3.125-1.399,3.125-3.125
		S264.601,246,262.875,246c-1.727,0-3.125,1.399-3.125,3.125c0,0.168,0.014,0.333,0.039,0.495l-8.418,4.209
		c-0.568-0.587-1.364-0.954-2.246-0.954c-1.726,0-3.125,1.399-3.125,3.125c0,1.726,1.399,3.125,3.125,3.125
		c0.882,0,1.678-0.366,2.246-0.954l8.418,4.209c-0.025,0.161-0.039,0.327-0.039,0.495c0,1.726,1.398,3.125,3.125,3.125
		c1.726,0,3.125-1.399,3.125-3.125S264.601,259.75,262.875,259.75z"/>
</g>
</svg>
